# xmcd
#
# Track frame offsets:
#	150
#	21310
#	46287
#	63509
#	79215
#	98924
#	119600
#	144174
#	169576
#
# Disc length: 2536 seconds
#
# Revision: 2
# Processed by: cddbd v1.4PL0 Copyright (c) Steve Scherf et al.
# Submitted via: EasyCDDAExtractor 5.0.6
#
DISCID=7509e609
DTITLE=Blues Boy Willie - Juke Joint Blues
DYEAR=1900
DGENRE=Blues
TTITLE0=Juke Joint Bluess
TTITLE1=One Step From Poverty
TTITLE2=I Should Have Listened
TTITLE3=Crazy Life
TTITLE4=I've Seen Blues Like I've Never Seen Before
TTITLE5=Whose Clothes Is These?
TTITLE6=Marry Myself
TTITLE7=Fat Cat Faye
TTITLE8=A Sudden Change
EXTD=
EXTT0=
EXTT1=
EXTT2=
EXTT3=
EXTT4=
EXTT5=
EXTT6=
EXTT7=
EXTT8=
PLAYORDER=
